<?xml version="1.0" encoding="UTF-8"?> <svg xmlns="http://www.w3.org/2000/svg" xmlns:xlink="http://www.w3.org/1999/xlink" version="1.1" id="Logo" x="0px" y="0px" viewBox="0 0 977.5 431.7" style="enable-background:new 0 0 977.5 431.7;" xml:space="preserve"> <style type="text/css"> .st0{fill:#053241;} .st1{fill:#28D7BE;} </style> <path class="st0" d="M199.2,288.4c-10,0-19-2.3-27.1-7c-8.1-4.7-14.5-11-19.2-19c-4.7-8-7.1-16.9-7.1-26.8c0-9.7,2.3-18.6,6.8-26.5 c4.5-7.9,10.7-14.3,18.4-19c7.7-4.7,16.3-7.1,25.8-7.1c9.5,0,17.9,2.4,25.2,7.1c7.3,4.7,13.2,11.1,17.5,19.2 c4.3,8.1,6.5,17.2,6.5,27.3v5.6h-80.2c1.1,5.6,3.2,10.6,6.3,15c3.1,4.4,7.1,7.9,12,10.4c4.9,2.5,10.2,3.8,15.9,3.8 c4.9,0,9.7-0.8,14.3-2.3c4.6-1.5,8.4-3.8,11.5-6.7l12.8,12.6c-6,4.5-12.2,7.9-18.5,10.1C213.8,287.3,206.8,288.4,199.2,288.4z M166,227.2h60.2c-0.8-5.3-2.6-10-5.5-14.1c-2.9-4.1-6.4-7.3-10.6-9.6c-4.2-2.3-8.8-3.5-13.7-3.5c-5.1,0-9.7,1.1-14,3.4 c-4.3,2.3-7.8,5.4-10.7,9.5C168.8,217,166.9,221.7,166,227.2z"></path> <path class="st0" d="M471.2,288.6c-7.9,0-14.8-1.7-20.8-5s-10.7-8-14-14.1c-3.3-6.1-5-13-5-20.9v-63.8h19.8v60.4 c0,8,2.3,14.3,6.9,19c4.6,4.7,10.8,7,18.5,7c5.5,0,10.3-1.2,14.6-3.5c4.3-2.3,7.7-5.6,10.4-9.9v-73h20v101.8h-20v-10.4 C493.7,284.5,483.6,288.6,471.2,288.6z"></path> <path class="st0" d="M594.2,288.6c-9.9,0-18.8-2.3-26.9-7c-8.1-4.7-14.4-11-19.1-19c-4.7-8-7-16.9-7-26.8c0-9.9,2.3-18.8,7-26.8 c4.7-8,11-14.4,19.1-19.1c8.1-4.7,17-7.1,26.9-7.1c10,0,19,2.4,27,7.1c8,4.7,14.3,11.1,19,19.1c4.7,8,7,16.9,7,26.8 c0,9.9-2.3,18.8-7,26.8c-4.7,8-11,14.3-19,19C613.2,286.3,604.2,288.6,594.2,288.6z M594.2,271c6.3,0,11.9-1.6,17-4.7 c5.1-3.1,9.1-7.4,12-12.7c2.9-5.3,4.4-11.3,4.4-18c0-6.5-1.5-12.4-4.5-17.7c-3-5.3-7-9.5-12-12.7c-5-3.2-10.6-4.8-16.9-4.8 c-6.3,0-11.9,1.6-16.9,4.8c-5,3.2-9,7.4-12,12.7c-3,5.3-4.5,11.2-4.5,17.7c0,6.7,1.5,12.7,4.4,18c2.9,5.3,6.9,9.6,12,12.7 C582.2,269.4,587.9,271,594.2,271z"></path> <path class="st0" d="M706.9,288.4c-9.9,0-17.4-2.3-22.6-6.9c-5.2-4.6-7.8-11.3-7.8-20.1v-59.8h-21.6v-16.8h21.6v-26l19.8-4.8v30.8 h30v16.8h-30v55.2c0,5.2,1.2,8.9,3.5,11.1c2.3,2.2,6.2,3.3,11.5,3.3c2.8,0,5.3-0.2,7.5-0.6s4.6-1,7.1-1.8v16.8 c-2.7,0.9-5.8,1.6-9.3,2.1C713.1,288.2,709.8,288.4,706.9,288.4z"></path> <path class="st0" d="M780.5,288.4c-7.3,0-13.8-1.3-19.4-3.9c-5.6-2.6-10-6.2-13.2-10.9c-3.2-4.7-4.8-10.1-4.8-16.2 c0-9.6,3.7-17.2,11-22.7c7.3-5.5,17.4-8.3,30.2-8.3c10,0,19.3,1.9,27.8,5.8v-10.8c0-7.3-2.1-12.8-6.3-16.4 c-4.2-3.6-10.4-5.4-18.5-5.4c-4.7,0-9.5,0.7-14.6,2.1c-5.1,1.4-10.7,3.6-17,6.5l-7.4-15c7.7-3.6,14.9-6.2,21.6-7.9 c6.7-1.7,13.4-2.5,20.2-2.5c13.2,0,23.4,3.1,30.7,9.4c7.3,6.3,10.9,15.2,10.9,26.8v67.6h-19.6v-8.8c-4.5,3.6-9.4,6.3-14.6,8 C792.3,287.5,786.6,288.4,780.5,288.4z M762.3,257c0,4.9,2.1,8.9,6.3,12c4.2,3.1,9.7,4.6,16.5,4.6c5.3,0,10.2-0.8,14.7-2.4 c4.5-1.6,8.6-4.1,12.3-7.4v-17.2c-3.9-2.3-7.9-3.9-12.1-4.9s-8.9-1.5-14.1-1.5c-7.3,0-13.1,1.5-17.3,4.5 C764.4,247.7,762.3,251.8,762.3,257z"></path> <path class="st0" d="M405.6,245.6c4-9.1,6-18.7,6-29c0-10.1-1.9-19.6-5.6-28.3c-3.7-8.7-8.9-16.4-15.6-23 c-6.7-6.6-14.4-11.7-23.2-15.4c-8.8-3.7-18.3-5.5-28.4-5.5c-10.3,0-19.8,1.8-28.7,5.5c-8.9,3.7-16.6,8.8-23.3,15.4 c-6.7,6.6-11.8,14.3-15.5,23c-3.7,8.7-5.5,18.2-5.5,28.3c0,10.1,1.8,19.6,5.5,28.3c3.7,8.7,8.8,16.4,15.5,23 c6.7,6.6,14.4,11.7,23.3,15.4c8.9,3.7,18.4,5.5,28.7,5.5c6.5,0,12.8-0.8,18.8-2.5s11.6-3.9,16.8-6.7c8.4-4.3,14.8-10.6,14.8-10.6 C396.1,262.5,401.6,254.7,405.6,245.6z M376.2,253c-8.1,7.8-14.8,10.8-14.8,10.8c-3.3,1.9-6.9,3.3-10.7,4.2 c-3.8,0.9-7.8,1.4-11.9,1.4c-7.3,0-14.1-1.3-20.4-4c-6.3-2.7-11.7-6.4-16.4-11.1c-4.7-4.7-8.3-10.3-10.9-16.8 c-2.6-6.5-3.9-13.4-3.9-20.9c0-7.6,1.3-14.6,3.9-21s6.2-12,10.9-16.7c4.7-4.7,10.1-8.4,16.4-11.1c6.3-2.7,13.1-4,20.4-4 c7.2,0,13.9,1.3,20.1,4c6.2,2.7,11.6,6.4,16.3,11.1c4.7,4.7,8.3,10.3,11,16.7c2.7,6.4,4,13.4,4,21c0,7.1-1.2,13.7-3.7,20 C384,242.9,380.6,248.3,376.2,253z"></path> <rect x="370.6" y="266.7" transform="matrix(6.123234e-17 -1 1 6.123234e-17 71.9419 689.1122)" class="st1" width="19.8" height="83.7"></rect> </svg> 